<?xml version="1.0" encoding="utf-8"?>
<svg version="1.1" id="Layer_1" x="0px" y="0px" viewBox="0 0 79.37 122.88" style="enable-background:new 0 0 79.37 122.88" xmlns="http://www.w3.org/2000/svg">
  <g>
    <path d="M 49.759 120.748 C 56.469 118.898 62.479 115.308 67.269 110.518 C 74.459 103.328 78.919 93.408 78.919 82.488 L 78.919 38.798 C 78.919 27.878 74.459 17.958 67.269 10.768 C 60.079 3.578 50.159 -0.882 39.239 -0.882 C 28.329 -0.882 18.399 3.578 11.209 10.768 C 4.019 17.958 -0.441 27.888 -0.441 38.798 L -0.441 82.478 C -0.441 93.398 4.019 103.318 11.209 110.508 C 16.799 116.098 24.029 120.038 32.099 121.518 C 36.979 122.418 45.259 121.988 49.759 120.748 L 49.759 120.748 L 49.759 120.748 Z M 38.789 91.178 C 42.939 91.178 46.339 87.778 46.339 83.628 L 46.339 75.848 C 46.339 71.698 42.939 68.298 38.789 68.298 C 34.639 68.298 31.239 71.698 31.239 75.848 L 31.239 83.628 C 31.239 87.778 34.629 91.178 38.789 91.178 L 38.789 91.178 Z M 60.639 103.888 C 55.149 109.378 47.569 112.798 39.239 112.798 C 30.909 112.798 23.339 109.388 17.839 103.888 C 12.349 98.398 8.929 90.818 8.929 82.488 L 8.929 38.798 C 8.929 30.468 12.339 22.898 17.839 17.398 C 23.329 11.908 30.909 8.488 39.239 8.488 C 47.569 8.488 55.139 11.898 60.639 17.398 C 66.129 22.888 69.549 30.468 69.549 38.798 L 69.549 82.478 C 69.549 90.818 66.139 98.388 60.639 103.888 L 60.639 103.888 L 60.639 103.888 Z" style="fill: rgb(248, 248, 248);"/>
  </g>
</svg>